<svg xmlns="http://www.w3.org/2000/svg" width="512" height="512" viewBox="0 0 512 512">
  <defs>
    <linearGradient id="background" x1="70" y1="56" x2="452" y2="466" gradientUnits="userSpaceOnUse">
      <stop stop-color="#6047F5"/>
      <stop offset="0.52" stop-color="#6D5DFB"/>
      <stop offset="1" stop-color="#008FA8"/>
    </linearGradient>
  </defs>
  <rect x="24" y="24" width="464" height="464" rx="112" fill="url(#background)"/>
  <path d="M132 108h248c24.3 0 44 19.7 44 44v208c0 24.3-19.7 44-44 44H132c-24.3 0-44-19.7-44-44V152c0-24.3 19.7-44 44-44Z" fill="#FFFFFF"/>
  <rect x="124" y="140" width="240" height="232" rx="42" fill="#171A35"/>
  <rect x="368" y="166" width="20" height="70" rx="10" fill="#B9F5F4"/>
  <rect x="368" y="276" width="20" height="70" rx="10" fill="#B9F5F4"/>
  <circle cx="244" cy="244" r="72" fill="none" stroke="#48D8EC" stroke-width="22"/>
  <circle cx="244" cy="244" r="18" fill="#FFFFFF"/>
  <path d="M244 190v36m0 36v36m-54-54h36m36 0h36" fill="none" stroke="#FFFFFF" stroke-width="16" stroke-linecap="round"/>
  <rect x="166" y="326" width="12" height="22" rx="3" fill="#FFFFFF"/>
  <rect x="186" y="316" width="8" height="32" rx="3" fill="#48D8EC"/>
  <rect x="202" y="322" width="16" height="26" rx="3" fill="#FFFFFF"/>
  <rect x="226" y="312" width="9" height="36" rx="3" fill="#48D8EC"/>
  <rect x="243" y="318" width="13" height="30" rx="3" fill="#FFFFFF"/>
  <rect x="264" y="310" width="8" height="38" rx="3" fill="#48D8EC"/>
  <rect x="280" y="320" width="18" height="28" rx="3" fill="#FFFFFF"/>
  <rect x="306" y="314" width="10" height="34" rx="3" fill="#48D8EC"/>
</svg>